<?xml version="1.0" encoding="UTF-8" standalone="no"?>
<svg
   xml:space="preserve"
   width="4493.7207"
   height="996.17889"
   version="1.1"
   id="svg16"
   sodipodi:docname="logo-long-auth-o.svg"
   inkscape:version="1.4 (e7c3feb100, 2024-10-09)"
   xmlns:inkscape="http://www.inkscape.org/namespaces/inkscape"
   xmlns:sodipodi="http://sodipodi.sourceforge.net/DTD/sodipodi-0.dtd"
   xmlns="http://www.w3.org/2000/svg"
   xmlns:svg="http://www.w3.org/2000/svg"><sodipodi:namedview
   id="namedview16"
   pagecolor="#505050"
   bordercolor="#ffffff"
   borderopacity="1"
   inkscape:showpageshadow="0"
   inkscape:pageopacity="0"
   inkscape:pagecheckerboard="1"
   inkscape:deskcolor="#505050"
   inkscape:zoom="0.2238"
   inkscape:cx="2205.0938"
   inkscape:cy="886.95264"
   inkscape:window-width="1920"
   inkscape:window-height="1055"
   inkscape:window-x="0"
   inkscape:window-y="0"
   inkscape:window-maximized="1"
   inkscape:current-layer="svg16" />
  <defs
   id="defs3">
    <clipPath
   clipPathUnits="userSpaceOnUse"
   id="a">
      <path
   d="M -57.6,991.68 H 2207.76 V 119.28 H -57.6 Z"
   id="path1" />
    </clipPath>
    <clipPath
   clipPathUnits="userSpaceOnUse"
   id="b">
      <path
   d="M -42,1055.52 H 2202.72 V 24.48 H -42 Z"
   id="path2" />
    </clipPath>
    <filter
   style="color-interpolation-filters:sRGB"
   id="d"
   x="-0.007792447"
   y="-0.066638312"
   width="1.0155849"
   height="1.1332766">
      <feGaussianBlur
   stdDeviation="7.41"
   id="feGaussianBlur2" />
    </filter>
    <filter
   style="color-interpolation-filters:sRGB"
   id="c"
   x="-0.016279669"
   y="-0.049744819"
   width="1.0325593"
   height="1.0994896">
      <feGaussianBlur
   stdDeviation="9.876"
   id="feGaussianBlur3" />
    </filter>
  </defs>
  <g
   style="display:inline"
   id="g16"
   transform="translate(-253.4994,-222.00177)">
    <g
   style="display:inline;opacity:0.315041;fill:none;fill-opacity:1;stroke:#cdfbf9;stroke-opacity:1;filter:url(#c)"
   transform="matrix(2.0804,0,0,-1.32344,263.622,1442.97)"
   id="g3">
      <path
   d="m 29.19,820.353 2091.916,68.163 M 29.19,203.908 2121.106,272.07"
   style="display:inline;fill:none;fill-opacity:1;stroke:#cdfbf9;stroke-width:20.7066;stroke-linecap:round;stroke-linejoin:miter;stroke-miterlimit:10;stroke-dasharray:none;stroke-opacity:1"
   id="path3" />
    </g>
    <g
   style="display:inline;opacity:0.315041;fill:#cdfbf9;fill-opacity:1;stroke:#cdfbf9;stroke-opacity:1;filter:url(#d)"
   transform="matrix(1.3330376,-0.02792316,-0.02792316,-1.3330376,987.65129,1480.2102)"
   id="g12">
      <path
   d="m -208.95,701.869 q 20.167,0.002 52.864,-9.98 3.916,-1.175 6.265,-1.175 1.958,0 11.747,3.526 3.132,1.175 6.656,1.175 13.118,0 27.608,-20.75 14.686,-20.753 14.688,-39.548 0,-10.964 -6.655,-18.6 -6.46,-7.44 -15.858,-7.442 -7.832,0 -12.727,3.132 -4.895,3.132 -21.538,18.597 -23.496,21.926 -46.207,21.924 -10.964,0 -17.62,-5.288 -6.46,-5.286 -6.46,-13.901 0,-17.033 29.957,-25.645 40.53,-11.94 51.885,-17.42 49.928,-24.273 49.932,-71.458 0,-41.702 -34.06,-68.136 -34.848,-27.022 -91.038,-27.027 -25.061,-0.002 -52.863,5.87 -27.802,6.066 -40.137,14.092 -9.399,6.264 -17.036,27.213 -7.442,21.144 -7.444,41.114 0,9.593 3.915,14.488 4.894,6.266 12.334,6.267 7.44,0 14.293,-7.635 4.112,-4.307 19.385,-27.604 7.245,-10.963 22.908,-18.206 15.86,-7.242 32.697,-7.24 14.488,0 23.494,5.288 9.006,5.482 9.005,13.901 0,7.832 -7.05,13.509 -7.048,5.677 -22.907,10.57 -27.998,8.808 -42.683,16.05 -14.685,7.44 -27.412,18.598 -30.936,27.407 -30.94,62.257 0,17.229 8.025,33.48 8.025,16.447 22.708,28.39 32.89,27.61 80.27,27.614 z"
   style="font-size:407.133px;font-family:cooper;-inkscape-font-specification:CooperBlack;fill:#cdfbf9;fill-opacity:1;stroke:#cdfbf9;stroke-width:10.341;stroke-opacity:1"
   id="path4" />
      <path
   d="m 42.975,610.642 0.01,-113.752 q 10e-4,-13.509 2.352,-19.774 2.545,-6.265 9.986,-11.55 6.07,-4.307 8.028,-7.44 2.153,-2.936 2.154,-7.635 0,-25.256 -64.02,-25.262 -34.458,-0.003 -54.624,5.477 -6.853,1.957 -11.16,6.851 -4.113,4.895 -4.113,11.16 0,5.286 2.153,8.223 2.153,2.937 10.963,9.399 6.069,4.503 8.613,14.684 2.544,10.182 2.543,30.347 -10e-4,6.461 -0.982,24.082 -0.784,17.816 -1.176,20.753 -1.176,8.027 -10.965,12.334 -12.14,5.285 -12.14,15.661 -10e-4,12.335 15.857,18.406 21.927,8.42 46.987,14.296 25.06,5.876 38.765,5.877 10.768,10e-4 10.77,-12.137 z m -38.773,85.75 q 17.033,0.002 27.02,-6.458 9.985,-6.265 9.986,-17.033 0,-15.075 -15.074,-23.887 Q 2.25,635.11 -31.62,635.108 q -14.292,0 -22.712,5.48 -11.356,7.047 -11.357,19.577 0,16.838 24.08,26.434 24.471,9.791 45.812,9.793 z M 175.88,622.22 q 11.16,0 11.161,-15.858 v -3.328 q -0.195,-3.133 -0.195,-5.09 0.001,-10.573 6.266,-10.572 3.329,0 10.376,8.42 10.571,12.14 26.625,19.189 16.054,7.245 32.891,7.247 32.697,0.003 45.425,-23.882 4.895,-8.81 8.028,-8.81 2.154,0 10.18,7.833 25.45,24.867 57.755,24.87 25.256,0.002 41.312,-13.897 16.838,-14.487 16.84,-43.463 0.002,-6.265 -0.389,-21.145 -0.39,-5.09 -0.388,-30.738 0,-16.446 -0.194,-23.103 -0.196,-4.111 -0.195,-5.874 0,-12.53 7.833,-21.927 4.7,-5.677 5.678,-7.635 1.175,-1.762 1.175,-4.894 0,-25.061 -58.929,-25.066 -26.039,-0.002 -42.094,6.261 -15.86,6.264 -15.86,16.445 0,3.915 0.978,5.873 1.175,2.154 7.635,10.965 6.068,8.028 6.064,53.45 0,26.43 -3.723,36.807 -4.308,12.334 -17.23,12.333 -6.461,0 -11.551,-4.112 -4.894,-3.917 -6.46,-9.986 -1.762,-7.049 -1.955,-37.591 0.59,-32.892 1.962,-39.94 1.567,-7.048 9.987,-19.578 1.958,-2.936 1.958,-7.44 0,-23.298 -60.887,-23.303 -36.612,-0.003 -49.338,5.477 -10.182,4.306 -10.183,15.27 0,4.895 1.174,6.853 1.37,1.958 8.81,9.007 4.307,4.112 5.481,7.636 1.37,3.72 1.957,13.314 1.368,21.536 1.366,43.464 0,38.374 -19.582,38.372 -14.683,0 -17.423,-16.447 -2.348,-15.467 -2.345,-44.248 0,-21.536 0.785,-28.193 0.98,-6.657 4.896,-13.9 4.7,-8.419 4.7,-13.705 0.001,-12.726 -17.814,-17.622 -19.383,-5.288 -42.681,-5.29 -30.151,-0.003 -44.248,4.695 -14.097,4.893 -14.098,15.27 0,3.915 1.761,6.657 1.958,2.74 8.614,8.615 8.81,8.028 10.179,22.125 2.151,24.277 2.149,50.317 0,18.6 -1.96,25.843 -1.763,7.44 -7.833,11.942 -5.874,4.503 -7.636,6.852 -1.566,2.35 -1.567,6.46 0,13.119 20.556,20.756 49.532,17.821 74.2,18.019 z"
   style="font-size:407.133px;font-family:cooper;-inkscape-font-specification:CooperBlack;fill:#cdfbf9;fill-opacity:1;stroke:#cdfbf9;stroke-width:10.3409;stroke-opacity:1"
   id="path5" />
      <path
   d="m 567.347,622.107 q 11.943,10e-4 14.88,-2.152 2.936,-1.958 2.937,-10.18 0,-7.245 4.7,-7.244 1.958,0 13.117,7.44 8.418,5.68 21.34,9.4 13.117,3.917 23.69,3.918 24.864,0.002 44.444,-17.225 14.88,-13.116 23.106,-33.086 8.616,-20.948 8.618,-44.05 0,-49.338 -33.276,-81.254 -25.646,-24.868 -58.342,-24.87 -16.641,-0.002 -34.263,7.828 -3.524,1.566 -5.678,1.566 -5.873,0 -5.872,-11.748 0,-15.467 10.378,-22.319 9.594,-6.46 11.357,-8.613 1.958,-2.35 1.958,-7.636 0,-11.747 -13.116,-18.013 -13.117,-6.462 -37.003,-6.464 -42.485,-0.004 -74.4,17.026 -16.25,8.613 -16.252,21.34 0,5.873 2.349,9.006 2.545,2.937 9.593,6.266 10.18,4.7 12.333,17.034 2.348,12.335 3.517,70.875 -1.374,48.163 -3.529,54.036 -0.783,1.958 -2.35,2.545 -1.37,0.588 -9.593,2.153 -6.265,1.174 -10.181,5.677 -3.916,4.698 -3.917,11.16 0,7.83 5.48,13.705 5.482,6.07 17.816,11.749 47.966,21.736 76.159,22.13 z m 19.39,-74.005 -2.933,-53.841 q -0.195,-3.329 -0.195,-6.461 0,-6.07 5.287,-9.789 5.287,-3.72 14.097,-3.719 27.019,0.002 27.014,44.446 0,28.78 -11.359,40.527 -7.049,7.243 -16.838,7.242 -13.9,0 -15.074,-18.405 z"
   style="font-size:407.133px;font-family:cooper;-inkscape-font-specification:CooperBlack;fill:#cdfbf9;fill-opacity:1;stroke:#cdfbf9;stroke-width:10.341;stroke-opacity:1"
   id="path6" />
      <path
   d="m 853.237,584.446 0.01,-62.847 q 0,-41.702 1.18,-48.554 1.37,-6.853 9.79,-10.572 7.244,-3.132 9.593,-5.873 2.546,-2.74 2.546,-7.83 0,-6.462 -4.697,-11.748 -4.503,-5.287 -12.139,-7.441 -14.096,-4.309 -47.575,-4.312 -37.787,-0.003 -53.058,5.673 -7.049,2.545 -11.552,7.83 -4.504,5.482 -4.505,11.356 0,4.699 2.35,7.244 2.544,2.545 10.767,6.07 7.636,3.33 9.396,18.21 3.13,25.452 3.126,72.44 0,47.772 -2.747,61.476 -2.742,13.705 -13.706,20.361 -8.224,4.698 -11.357,8.81 -2.937,4.306 -2.937,10.376 0,9.593 9.2,16.642 9.201,7.245 29.367,13.316 13.509,4.113 35.044,7.835 21.537,3.722 31.326,3.723 15.467,0 15.469,-19.186 0,-6.265 -1.956,-28.78 -2.542,-35.046 -2.93,-64.219 z m 218.252,-68.101 -92.02,-0.008 q -6.069,-10e-4 -6.068,-5.287 0,-12.726 13.707,-24.08 13.902,-11.16 29.76,-11.158 9.398,10e-4 20.753,3.526 11.551,3.721 18.99,9.008 6.657,4.7 10.573,4.7 5.09,0 9.985,-6.264 4.896,-6.265 4.896,-12.922 0,-14.096 -17.618,-27.215 -31.128,-23.302 -71.851,-23.305 -41.115,-0.004 -68.92,23.88 -13.51,11.745 -22.321,28.386 -11.553,22.123 -11.556,46.596 0,32.892 19.965,59.13 17.227,22.712 43.853,33.874 19.97,8.42 43.268,8.423 37.2,0.003 63.24,-21.14 13.119,-10.57 21.148,-25.058 9.203,-16.445 9.204,-32.108 0,-12.726 -5.284,-20.95 -5.286,-8.027 -13.704,-8.028 z m -86.932,36.604 19.774,0.002 q 12.53,0 12.53,11.552 0,10.573 -6.072,17.229 -6.07,6.656 -15.859,6.655 -10.964,0 -17.228,-8.616 -5.873,-8.028 -5.872,-16.25 0,-5.874 2.742,-8.224 2.937,-2.349 9.985,-2.348 z"
   style="font-size:407.133px;font-family:cooper;-inkscape-font-specification:CooperBlack;fill:#cdfbf9;fill-opacity:1;stroke:#cdfbf9;stroke-width:10.3409;stroke-opacity:1"
   id="path7" />
      <path
   d="m 1246.404,683.739 q 19.746,0.002 51.762,-9.773 3.834,-1.15 6.134,-1.15 1.917,0 11.502,3.452 3.068,1.15 6.518,1.151 12.845,10e-4 27.033,-20.318 14.38,-20.32 14.381,-38.724 10e-4,-10.735 -6.516,-18.212 -6.326,-7.286 -15.528,-7.287 -7.668,0 -12.461,3.066 -4.793,3.067 -21.09,18.21 -23.006,21.47 -45.244,21.468 -10.736,-10e-4 -17.253,-5.178 -6.326,-5.177 -6.325,-13.612 0,-16.678 29.333,-25.11 39.685,-11.691 50.804,-17.058 48.887,-23.767 48.892,-69.968 0,-40.834 -33.351,-66.717 -34.122,-26.459 -89.142,-26.464 -24.538,-0.002 -51.76,5.747 -27.224,5.94 -39.302,13.799 -9.202,6.134 -16.68,26.646 -7.288,20.703 -7.29,40.257 0,9.394 3.834,14.187 4.792,6.135 12.076,6.136 7.285,0 13.996,-7.476 4.026,-4.217 18.981,-27.028 7.094,-10.735 22.431,-17.827 15.53,-7.092 32.016,-7.09 14.186,0 23.004,5.178 8.818,5.368 8.818,13.612 -10e-4,7.668 -6.903,13.227 -6.902,5.559 -22.43,10.35 -27.415,8.624 -41.794,15.716 -14.379,7.284 -26.84,18.21 -30.293,26.836 -30.296,60.96 0,16.87 7.857,32.782 7.859,16.104 22.236,27.8 32.204,27.033 78.597,27.038 z"
   style="font-size:398.651px;font-family:cooper;-inkscape-font-specification:CooperBlack;fill:#cdfbf9;fill-opacity:1;stroke:#cdfbf9;stroke-width:10.341;stroke-opacity:1"
   id="path8" />
      <path
   d="m 1500.448,557.169 0.01,-64.797 q 10e-4,-11.502 5.562,-18.787 5.751,-7.284 14.57,-7.283 7.477,0 19.745,6.903 2.876,1.726 5.751,1.726 4.601,0 8.436,-5.559 3.835,-5.559 3.835,-12.077 0,-11.886 -13.034,-22.814 -27.22,-23.2 -65.945,-23.203 -30.673,-0.003 -49.27,17.25 -18.597,17.443 -18.6,45.816 l -0.01,88.568 q 0,4.41 -1.15,5.368 -0.96,1.15 -5.368,1.15 l -19.746,-0.002 q -5.56,0 -7.093,1.724 -1.534,1.917 -1.535,8.627 v 8.435 q 0.19,5.751 4.408,8.436 l 87.797,55.219 q 3.258,1.726 8.051,1.726 l 15.528,10e-4 q 4.793,0 6.327,-2.3 1.725,-2.109 1.726,-8.627 v -25.88 q 0,-5.751 1.726,-7.476 1.917,-1.726 7.86,-1.725 l 35.466,0.003 q 7.093,0 9.202,-2.683 2.109,-2.492 2.11,-10.927 v -11.31 q 10e-4,-9.203 -2.682,-12.845 -2.684,-3.451 -9.777,-3.452 l -34.699,-0.003 q -5.367,0 -7.284,-1.918 -1.917,-1.917 -1.917,-7.285 z"
   style="font-size:398.651px;font-family:cooper;-inkscape-font-specification:CooperBlack;fill:#cdfbf9;fill-opacity:1;stroke:#cdfbf9;stroke-width:10.3409;stroke-opacity:1"
   id="path9" />
      <path
   d="m 1683.071,607.28 q 33.357,0.003 56.555,-16.865 12.27,-9.01 17.064,-20.703 4.985,-11.502 4.987,-31.823 l -0.38,-28.564 q 0,-29.714 4.22,-38.533 2.11,-4.217 4.026,-5.367 1.918,-1.15 8.053,-2.108 6.134,-0.958 6.135,-8.051 0,-9.202 -7.475,-19.171 -7.284,-9.97 -18.978,-16.68 -14.377,-8.437 -30.097,-8.438 -20.129,-0.002 -31.824,13.8 -4.026,4.984 -7.477,4.983 -3.834,0 -10.16,-4.793 -19.17,-13.997 -43.516,-13.999 -25.114,-0.002 -40.643,10.732 -10.161,7.092 -16.105,18.402 -5.944,11.502 -5.945,23.963 0,19.938 16.1,35.276 25.111,24.157 75.147,24.353 11.119,0.001 13.994,2.11 2.876,2.3 2.875,10.353 0,20.32 -4.22,29.33 -4.219,9.202 -13.804,9.201 -5.751,0 -10.352,-3.452 -4.409,-3.45 -11.118,-12.653 -17.06,-24.349 -35.655,-24.35 -9.394,-10e-4 -15.337,5.558 -5.943,5.559 -5.944,14.569 -10e-4,9.202 7.283,18.404 7.476,9.203 20.128,16.106 34.697,18.407 72.463,18.41 z m -12.834,-111 q -8.435,0 -14.761,-6.902 -6.134,-6.902 -6.133,-16.487 0,-9.202 4.41,-14.953 4.41,-5.56 11.695,-5.558 15.337,0 15.334,25.881 0,10.544 -2.301,14.186 -2.11,3.643 -8.244,3.834 z m 242.935,60.926 0.01,-64.796 q 0,-11.503 5.561,-18.787 5.752,-7.284 14.57,-7.284 7.477,10e-4 19.746,6.904 2.875,1.725 5.75,1.725 4.602,0 8.437,-5.558 3.834,-5.56 3.835,-12.077 0,-11.886 -13.034,-22.815 -27.22,-23.199 -65.945,-23.202 -30.673,-0.003 -49.27,17.249 -18.598,17.444 -18.6,45.816 l -0.01,88.569 q 0,4.409 -1.151,5.367 -0.959,1.15 -5.368,1.15 l -19.745,-0.002 q -5.56,0 -7.094,1.725 -1.534,1.917 -1.534,8.626 l -10e-4,8.435 q 0.191,5.752 4.408,8.436 l 87.797,55.22 q 3.259,1.725 8.052,1.725 l 15.528,0.001 q 4.793,0 6.326,-2.3 1.726,-2.108 1.726,-8.626 v -25.88 q 0,-5.752 1.727,-7.477 1.917,-1.725 7.86,-1.725 l 35.465,0.003 q 7.093,10e-4 9.202,-2.683 2.11,-2.492 2.11,-10.927 v -11.31 q 10e-4,-9.202 -2.683,-12.845 -2.683,-3.451 -9.776,-3.452 l -34.699,-0.003 q -5.368,0 -7.285,-1.917 -1.917,-1.918 -1.916,-7.285 z m 177.008,37.26 0.01,-111.382 q 0,-13.227 2.302,-19.362 2.493,-6.134 9.778,-11.31 5.943,-4.216 7.86,-7.284 2.11,-2.875 2.11,-7.476 0,-24.73 -62.686,-24.736 -33.74,-0.003 -53.487,5.363 -6.71,1.917 -10.928,6.709 -4.026,4.792 -4.026,10.927 0,5.176 2.108,8.052 2.108,2.875 10.735,9.203 5.942,4.41 8.433,14.378 2.492,9.97 2.49,29.715 0,6.326 -0.961,23.58 -0.768,17.445 -1.152,20.32 -1.151,7.86 -10.737,12.077 -11.886,5.175 -11.887,15.336 0,12.077 15.527,18.021 21.47,8.246 46.008,14 24.538,5.753 37.958,5.754 10.543,0 10.545,-11.885 z m -37.966,83.964 q 16.678,0.002 26.456,-6.324 9.778,-6.134 9.779,-16.677 0,-14.762 -14.76,-23.39 -23.387,-13.613 -56.552,-13.616 -13.995,-10e-4 -22.238,5.365 -11.12,6.9 -11.121,19.17 0,16.487 23.577,25.883 23.963,9.587 44.859,9.59 z"
   style="font-size:398.651px;font-family:cooper;-inkscape-font-specification:CooperBlack;fill:#cdfbf9;fill-opacity:1;stroke:#cdfbf9;stroke-width:10.341;stroke-opacity:1"
   id="path10" />
      <path
   d="m 2244.922,607.31 q 35.082,0.004 61.54,-18.206 18.98,-13.034 30.484,-33.93 11.888,-21.853 11.89,-45.624 0,-41.6 -38.144,-70.743 -36.421,-27.801 -83.39,-27.806 -45.818,-0.004 -74.192,26.066 -27.608,25.303 -27.612,65.944 0,45.243 33.734,74.002 35.27,30.293 85.69,30.298 z m -15.333,-44.285 q -8.435,0 -13.61,-6.328 -4.984,-6.135 -4.983,-16.487 0,-11.502 4.22,-31.44 4.411,-19.745 10.355,-35.08 5.945,-15.72 19.364,-15.719 17.062,0.002 17.06,21.665 0,16.103 -4.412,36.615 -4.22,20.512 -10.356,33.356 -6.327,13.036 -17.638,13.418 z"
   style="font-size:398.651px;font-family:cooper;-inkscape-font-specification:CooperBlack;fill:#cdfbf9;fill-opacity:1;stroke:#cdfbf9;stroke-width:10.3409;stroke-opacity:1"
   id="path11" />
      <path
   d="m 2598.99,536.417 2.69,-67.48 q 0.385,-7.669 2.302,-11.311 2.11,-3.642 11.887,-13.994 2.876,-3.067 2.877,-8.626 0,-12.653 -15.144,-17.639 -15.144,-4.985 -54.06,-4.989 -26.456,-0.002 -37.384,4.598 -11.31,4.791 -11.312,15.527 0,3.834 1.15,5.56 1.15,1.917 7.667,9.01 7.668,8.053 7.664,53.679 0,26.456 -6.138,39.108 -4.986,10.16 -18.405,10.158 -12.844,0 -17.636,-8.245 -4.792,-8.243 -4.79,-29.906 v -37.958 q 0,-11.31 1.343,-15.528 1.534,-4.218 9.587,-16.294 2.109,-3.451 2.11,-7.86 0,-11.31 -15.72,-16.68 -15.719,-5.37 -49.075,-5.372 -53.295,-0.005 -53.297,22.041 0,4.601 1.533,6.902 1.725,2.492 7.86,6.902 4.983,3.643 6.325,8.244 1.342,4.793 2.49,23.196 1.34,21.855 1.338,45.818 0,13.228 -2.11,17.254 -1.918,4.217 -11.504,10.16 -8.244,5.175 -8.244,12.651 0,7.668 6.708,12.462 6.71,4.985 27.605,12.463 18.403,6.52 35.465,10.93 17.061,4.603 23.387,4.604 5.752,0 9.586,-4.217 4.026,-4.217 4.027,-9.968 0,-0.576 -0.192,-4.793 -0.19,-1.534 -0.19,-2.684 0,-9.202 7.668,-9.201 4.601,0 9.777,7.286 16.484,23.773 47.924,23.776 24.155,0.002 41.41,-12.65 12.078,-9.009 16.872,-21.277 4.794,-12.077 5.946,-35.657 z"
   style="font-size:398.651px;font-family:cooper;-inkscape-font-specification:CooperBlack;fill:#cdfbf9;fill-opacity:1;stroke:#cdfbf9;stroke-width:10.341;stroke-opacity:1"
   id="path12" />
    </g>
    <g
   style="display:inline"
   id="g13">
      <path
   d="m 13.11,819.83 2124.076,69.21 M 13.11,203.384 l 2124.076,69.21"
   style="display:inline;fill:none;stroke:#9b26b6;stroke-width:21.025;stroke-linecap:round;stroke-linejoin:miter;stroke-miterlimit:10;stroke-dasharray:none;stroke-opacity:1"
   transform="matrix(2.0804,0,0,-1.32344,263.622,1442.97)"
   id="path13" />
    </g>
    <g
   style="display:inline"
   id="g15">
      <path
   style="font-weight:900;font-size:403.585px;font-family:'Cooper*';-inkscape-font-specification:'Cooper*, Heavy';fill:#1b1a43;stroke:#00c1d5;stroke-width:10.4085"
   d="m -278.937,-500.852 c -4.843,-8.677 -15.134,-25.022 -30.47,-25.022 -11.503,0 -18.162,8.475 -18.162,23.408 0,25.224 11.3,57.309 18.162,64.17 16.143,15.941 51.255,27.443 93.43,27.443 70.425,0 129.147,-45.605 129.147,-109.573 0,-54.282 -39.955,-75.067 -87.578,-87.578 -24.619,-6.457 -46.009,-9.888 -46.009,-25.628 0,-10.09 9.08,-16.547 22.6,-16.547 15.942,0 27.445,7.063 36.929,15.74 5.246,4.843 10.09,9.888 15.134,14.126 6.66,5.852 13.722,8.879 22.803,8.879 13.116,0 26.435,-12.512 26.435,-29.26 0,-27.646 -26.839,-67.803 -48.027,-67.803 -8.879,0 -14.73,6.256 -22.197,6.256 -7.668,0 -12.108,-6.054 -45.202,-6.054 -58.116,0 -113.81,33.498 -113.81,96.053 0,55.493 38.34,85.157 91.613,100.695 34.709,10.09 40.762,14.73 40.762,26.031 0,10.291 -10.695,15.74 -30.874,15.74 -17.96,0 -42.578,-8.879 -54.686,-31.076 z M -67.66,-668.744 c 0,19.373 17.556,30.068 39.148,30.068 37.735,0 73.856,-16.75 73.856,-42.175 0,-15.538 -14.53,-27.242 -40.157,-27.242 -31.681,0 -72.847,11.704 -72.847,39.35 z m 22.6,165.874 c 0,16.95 -0.403,24.82 -2.824,34.305 -0.808,3.43 -3.431,7.062 -6.66,9.686 -3.632,2.825 -8.273,4.64 -11.502,8.273 -3.027,3.43 -4.641,7.87 -4.641,13.318 0,19.574 28.25,25.426 70.627,25.426 40.157,0 67.399,-6.255 67.399,-25.627 0,-8.274 -1.413,-11.704 -4.641,-14.933 -3.027,-3.229 -6.66,-3.834 -10.09,-7.063 -2.421,-2.22 -5.246,-6.86 -6.054,-12.713 -1.009,-6.659 -1.21,-15.941 -1.21,-31.277 v -35.92 c 0,-47.623 1.009,-63.968 1.009,-79.304 0,-7.466 -2.825,-9.888 -11.099,-9.888 -18.363,0 -57.51,8.88 -79.304,18.162 -21.996,9.484 -27.242,14.125 -27.242,27.04 0,4.44 1.614,8.071 5.448,11.502 3.43,3.027 10.695,3.229 14.933,8.677 5.044,6.66 5.852,31.076 5.852,48.632 z m 144.888,-12.108 c 0,14.53 -1.211,27.646 -3.834,40.157 -1.817,9.08 -4.843,13.117 -8.476,16.345 -4.036,3.43 -8.071,4.642 -10.897,7.87 -2.017,2.22 -3.228,5.045 -3.228,10.493 0,15.538 26.636,25.224 62.96,25.224 40.156,0 65.38,-4.237 65.38,-24.82 0,-3.834 -1.615,-7.265 -3.027,-9.484 -2.018,-3.027 -4.238,-5.247 -7.668,-8.677 -2.018,-2.018 -4.036,-4.642 -4.238,-9.888 -0.403,-7.265 -0.605,-22.4 -0.605,-45.807 0,-35.112 0.605,-48.834 21.793,-48.834 16.346,0 26.233,10.292 26.233,49.44 0,18.968 -0.403,33.699 -2.017,43.385 -1.211,6.86 -2.018,11.098 -3.633,13.923 -2.421,3.834 -5.448,5.449 -7.062,7.265 -2.018,2.421 -3.431,5.045 -3.431,11.704 0,19.17 23.61,21.995 63.968,21.995 46.21,0 59.125,-11.906 59.125,-23.206 0,-6.255 -1.614,-9.282 -4.64,-11.906 -2.624,-2.421 -6.66,-3.834 -9.283,-7.466 -1.816,-3.027 -3.027,-7.466 -3.834,-13.52 -0.807,-7.265 -1.413,-25.426 -1.413,-36.726 0,-27.848 2.018,-54.888 21.188,-54.888 16.346,0 26.233,10.292 26.233,49.44 0,18.968 -0.403,33.699 -2.018,43.385 -1.21,6.86 -2.017,11.098 -3.632,13.923 -2.421,3.834 -5.448,5.449 -7.063,7.265 -2.017,2.421 -3.43,5.045 -3.43,11.704 0,19.17 23.61,21.995 63.968,21.995 46.21,0 59.125,-11.906 59.125,-23.206 0,-6.255 -1.614,-9.282 -4.64,-11.906 -2.624,-2.421 -6.66,-3.834 -9.283,-7.466 -1.816,-3.027 -3.027,-7.466 -3.834,-13.52 -0.807,-7.265 -1.413,-25.426 -1.413,-36.726 0,-70.022 -3.229,-80.112 -14.73,-95.852 -8.88,-12.107 -28.655,-21.995 -53.274,-21.995 -21.39,0 -45,6.255 -58.116,26.435 -4.036,6.255 -5.852,8.071 -8.677,8.071 -5.247,0 -8.677,-5.65 -13.117,-12.51 -7.466,-11.906 -18.565,-21.996 -51.255,-21.996 -25.426,0 -42.982,6.255 -56.098,26.435 -4.036,6.255 -6.054,8.071 -8.677,8.071 -4.036,0 -6.054,-4.237 -6.054,-10.09 0,-5.65 1.21,-13.116 1.21,-18.968 0,-7.668 -5.246,-8.475 -13.52,-8.475 -32.286,0 -70.627,17.354 -88.183,26.838 -12.713,6.861 -14.327,12.713 -14.327,20.583 0,5.045 2.825,9.08 6.054,11.704 4.64,3.834 10.695,4.44 15.134,9.888 4.641,5.852 6.256,15.134 6.256,28.655 z m 392.446,45.807 c 0,37.13 -1.211,47.825 -2.624,59.125 -0.807,5.65 -2.825,12.713 -7.466,15.337 -3.43,1.816 -6.66,0.605 -10.493,2.22 -3.632,1.614 -6.256,6.659 -6.256,14.125 0,13.318 12.31,22.802 38.543,32.085 21.793,7.668 51.457,9.888 67.398,9.888 19.776,0 38.14,-9.485 38.14,-24.619 0,-6.86 -2.624,-9.686 -6.055,-12.107 -3.027,-2.018 -7.87,-5.247 -10.09,-7.265 -3.228,-2.825 -5.65,-5.045 -7.264,-9.282 -1.614,-4.238 -2.22,-15.135 -2.22,-23.207 0,-4.44 0,-10.493 2.422,-10.493 1.413,0 3.632,0.807 8.677,4.036 12.511,8.274 29.26,10.09 42.78,10.09 46.412,0 85.156,-56.502 85.156,-111.188 0,-57.914 -28.452,-110.38 -79.304,-110.38 -18.968,0 -38.946,7.87 -49.036,18.16 -4.843,4.844 -6.659,8.476 -9.484,8.476 -3.228,0 -4.44,-5.045 -4.44,-9.08 0,-3.633 0.203,-6.054 0.203,-9.283 0,-5.448 -3.23,-9.686 -11.099,-9.686 -22.399,0 -79.708,20.381 -101.3,38.946 -5.65,4.843 -8.072,10.291 -8.072,17.354 0,9.08 4.44,12.713 8.072,14.53 6.054,3.026 9.283,1.613 15.336,5.044 7.063,4.036 8.476,19.17 8.476,69.013 z m 106.143,5.449 c -14.126,0 -17.758,-3.43 -17.153,-24.417 l 1.413,-58.52 c 0.403,-14.933 5.852,-20.986 16.547,-20.986 20.38,0 30.067,22.6 30.067,57.914 0,31.278 -8.88,46.009 -30.875,46.009 z m 167.689,-73.453 c 0,33.094 -3.834,59.327 -6.66,70.83 -1.412,5.448 -4.64,8.676 -8.07,10.493 -3.028,1.614 -7.467,3.228 -10.696,5.044 -3.834,2.22 -7.668,6.054 -7.668,13.924 0,17.556 25.628,21.995 76.076,21.995 48.228,0 65.179,-9.887 65.179,-25.224 0,-5.852 -1.413,-8.475 -3.632,-10.695 -2.624,-2.421 -6.256,-3.632 -9.485,-6.053 -2.623,-2.018 -5.045,-4.843 -6.659,-9.485 -3.43,-9.282 -5.65,-21.793 -5.65,-73.452 v -46.816 c 0,-37.533 3.834,-80.515 3.834,-105.941 0,-8.879 -5.045,-10.09 -13.318,-10.09 -26.435,0 -71.435,9.888 -97.87,26.637 -8.475,5.448 -12.51,11.099 -12.51,21.592 0,6.054 3.631,11.3 9.483,13.318 3.835,1.413 7.467,1.21 13.52,4.843 10.494,6.256 14.126,24.619 14.126,54.282 z m 229.842,-93.632 c -55.897,0 -116.637,36.727 -116.637,110.18 0,67.398 45,109.976 108.363,109.976 46.412,0 92.22,-33.7 92.22,-54.08 0,-12.31 -8.476,-20.987 -15.74,-20.987 -7.063,0 -25.628,18.363 -53.677,18.363 -22.601,0 -38.14,-16.547 -44.395,-30.672 -1.21,-2.825 -2.018,-5.852 -2.018,-8.274 0,-5.448 3.229,-7.466 12.108,-7.466 l 79.506,0.404 c 16.95,0 19.574,-1.413 23.004,-5.247 2.22,-2.421 7.467,-13.52 7.467,-27.04 0,-41.368 -38.543,-85.157 -90.201,-85.157 z m 0,79.305 -18.767,-0.404 c -8.274,0 -13.318,-1.009 -13.318,-5.65 0,-3.632 -0.202,-9.888 2.22,-16.547 3.026,-8.879 9.887,-17.354 22.6,-17.354 14.327,0 23.004,11.906 23.004,30.874 0,6.861 -6.255,9.08 -15.74,9.08 z"
   transform="matrix(1.33304,-0.02804,0.02804,1.33304,987.453,1479.029)"
   aria-label="Simple"
   id="path14" />
      <path
   style="font-weight:900;font-size:394.249px;font-family:'Cooper*';-inkscape-font-specification:'Cooper*, Heavy';fill:#1b1a43;stroke:#00c1d5;stroke-width:10.3841"
   d="m 1183.165,-490.402 c -4.73,-8.476 -14.784,-24.443 -29.766,-24.443 -11.236,0 -17.74,8.279 -17.74,22.866 0,24.64 11.038,55.984 17.74,62.686 15.77,15.573 50.07,26.809 91.269,26.809 68.797,0 126.16,-44.55 126.16,-107.039 0,-53.026 -39.031,-73.33 -85.552,-85.552 -24.05,-6.308 -44.945,-9.659 -44.945,-25.035 0,-9.856 8.87,-16.164 22.078,-16.164 15.573,0 26.81,6.9 36.074,15.376 5.125,4.73 9.856,9.659 14.784,13.798 6.505,5.717 13.405,8.674 22.275,8.674 12.814,0 25.824,-12.222 25.824,-28.583 0,-27.006 -26.218,-66.234 -46.916,-66.234 -8.673,0 -14.39,6.111 -21.684,6.111 -7.49,0 -11.827,-5.914 -44.156,-5.914 -56.771,0 -111.178,32.723 -111.178,93.831 0,54.21 37.454,83.187 89.495,98.366 33.905,9.856 39.819,14.39 39.819,25.429 0,10.053 -10.448,15.375 -30.16,15.375 -17.544,0 -41.593,-8.673 -53.42,-30.357 z m 321.707,-8.673 v -68.994 c 0,-2.957 0.789,-3.942 3.943,-3.942 h 39.82 c 8.87,0 12.812,0 13.404,-10.645 l 1.182,-23.26 c 0.198,-1.972 0.198,-3.943 0.198,-4.535 0,-5.322 -2.957,-6.505 -11.237,-6.505 h -40.213 c -4.337,0 -5.52,-0.394 -5.52,-4.534 0,-4.14 0.789,-17.74 0.789,-29.174 0,-12.025 -7.49,-16.756 -17.741,-16.756 -10.448,0 -15.573,2.76 -20.304,5.914 l -82.792,55.59 c -3.943,2.562 -3.943,4.336 -4.14,7.293 -0.197,3.548 -0.394,12.419 -0.394,18.53 0,4.14 1.183,6.11 7.885,6.11 h 20.304 c 4.336,0 5.125,1.775 5.125,5.717 v 84.96 c 0,14.588 0.986,29.766 6.505,42.974 8.082,19.515 26.218,34.3 66.234,34.3 35.482,0 77.076,-27.4 77.076,-47.902 0,-10.842 -8.083,-22.078 -14.193,-22.078 -2.76,0 -4.929,1.38 -7.294,3.154 -3.943,2.957 -10.25,6.505 -17.347,6.505 -13.996,0 -21.29,-12.024 -21.29,-32.722 z m 80.546,-59.532 c 0,14.193 10.842,21.88 22.866,21.88 10.842,0 19.713,-5.519 27.203,-12.22 5.126,-4.732 13.602,-19.713 17.347,-23.656 4.534,-4.928 8.674,-8.082 15.376,-8.082 11.63,0 17.347,14.587 17.347,44.945 v 2.76 c 0,5.716 -0.394,7.096 -3.942,7.096 -3.746,0 -12.025,-0.986 -19.91,-0.986 -50.661,0 -89.889,26.02 -89.889,66.234 0,36.27 27.203,56.18 63.474,56.18 12.42,0 30.752,-0.59 45.339,-13.404 5.52,-4.928 9.462,-7.096 11.236,-7.096 1.774,0 3.943,0.788 5.914,3.35 10.645,14.785 18.135,15.376 33.117,15.376 34.89,0 64.065,-25.232 64.065,-48.098 0,-3.943 -1.38,-5.52 -3.745,-5.717 -1.774,-0.197 -4.337,-0.394 -7.097,-0.788 -7.688,-1.38 -12.221,-10.842 -12.221,-49.873 v -40.41 c 0,-46.127 -41.2,-65.248 -84.961,-65.248 -26.218,0 -66.234,9.462 -88.509,29.174 -8.87,7.885 -13.01,16.756 -13.01,28.583 z m 100.14,81.018 c 0,24.64 -5.915,27.992 -13.603,27.992 -12.418,0 -17.346,-9.856 -17.346,-23.26 0,-14.588 10.644,-23.261 22.078,-23.261 2.956,0 5.519,0.985 6.899,3.154 1.577,2.168 1.971,5.716 1.971,8.87 z m 227.481,-21.486 v -68.994 c 0,-2.957 0.788,-3.942 3.942,-3.942 h 39.82 c 8.87,0 12.813,0 13.404,-10.645 l 1.183,-23.26 c 0.197,-1.972 0.197,-3.943 0.197,-4.535 0,-5.322 -2.957,-6.505 -11.236,-6.505 h -40.213 c -4.337,0 -5.52,-0.394 -5.52,-4.534 0,-4.14 0.788,-17.74 0.788,-29.174 0,-12.025 -7.49,-16.756 -17.74,-16.756 -10.448,0 -15.573,2.76 -20.304,5.914 l -82.793,55.59 c -3.942,2.562 -3.942,4.336 -4.14,7.293 -0.197,3.548 -0.394,12.419 -0.394,18.53 0,4.14 1.183,6.11 7.885,6.11 h 20.304 c 4.337,0 5.125,1.775 5.125,5.717 v 84.96 c 0,14.588 0.986,29.766 6.506,42.974 8.082,19.515 26.217,34.3 66.233,34.3 35.483,0 77.076,-27.4 77.076,-47.902 0,-10.842 -8.082,-22.078 -14.193,-22.078 -2.76,0 -4.928,1.38 -7.294,3.154 -3.942,2.957 -10.25,6.505 -17.346,6.505 -13.996,0 -21.29,-12.024 -21.29,-32.722 z m 67.022,-155.334 c 0,18.924 17.15,29.371 38.243,29.371 36.862,0 72.147,-16.361 72.147,-41.199 0,-15.178 -14.193,-26.612 -39.228,-26.612 -30.948,0 -71.161,11.434 -71.161,38.44 z m 22.079,162.036 c 0,16.558 -0.395,24.246 -2.76,33.511 -0.789,3.351 -3.351,6.9 -6.505,9.462 -3.549,2.76 -8.083,4.534 -11.237,8.082 -2.956,3.351 -4.533,7.688 -4.533,13.01 0,19.121 27.597,24.838 68.993,24.838 39.228,0 65.84,-6.11 65.84,-25.035 0,-8.082 -1.38,-11.433 -4.534,-14.587 -2.957,-3.154 -6.505,-3.745 -9.856,-6.9 -2.366,-2.168 -5.126,-6.702 -5.914,-12.418 -0.986,-6.505 -1.183,-15.573 -1.183,-30.554 v -35.089 c 0,-46.521 0.986,-62.488 0.986,-77.47 0,-7.293 -2.76,-9.659 -10.842,-9.659 -17.938,0 -56.18,8.674 -77.47,17.742 -21.487,9.264 -26.612,13.798 -26.612,26.414 0,4.337 1.577,7.885 5.323,11.236 3.35,2.957 10.447,3.154 14.587,8.477 4.928,6.505 5.716,30.357 5.716,47.507 z m 117.683,-14.784 c 0,61.897 46.325,103.293 106.25,103.293 65.052,0 117.487,-48.887 117.487,-110.193 0,-62.488 -46.127,-101.322 -103.688,-101.322 -70.373,0 -120.049,50.267 -120.049,108.222 z m 119.26,58.348 c -23.26,0 -32.722,-56.969 -32.722,-92.057 0,-14.587 7.688,-24.837 18.136,-24.837 23.852,0 33.117,60.911 33.117,91.465 0,12.814 -6.9,25.43 -18.53,25.43 z m 141.93,-55.392 c 0,14.193 -1.182,27.007 -3.745,39.228 -1.774,8.87 -4.73,12.813 -8.279,15.967 -3.942,3.351 -7.885,4.534 -10.645,7.688 -1.97,2.169 -3.154,4.928 -3.154,10.25 0,15.18 26.02,24.641 61.503,24.641 39.228,0 63.868,-4.14 63.868,-24.246 0,-3.745 -1.576,-7.097 -2.956,-9.265 -1.972,-2.957 -4.14,-5.125 -7.491,-8.476 -1.971,-1.972 -3.943,-4.534 -4.14,-9.66 -0.394,-7.096 -0.591,-21.88 -0.591,-44.747 0,-34.3 0.591,-47.704 21.29,-47.704 15.966,0 25.626,10.054 25.626,48.296 0,18.53 -0.395,32.92 -1.972,42.381 -1.182,6.703 -1.97,10.842 -3.548,13.602 -2.365,3.745 -5.322,5.322 -6.9,7.097 -1.97,2.365 -3.35,4.928 -3.35,11.433 0,18.727 23.063,21.486 62.488,21.486 45.142,0 57.758,-11.63 57.758,-22.669 0,-6.11 -1.577,-9.068 -4.534,-11.63 -2.563,-2.366 -6.505,-3.746 -9.068,-7.294 -1.774,-2.957 -2.957,-7.294 -3.745,-13.207 -0.789,-7.097 -1.38,-24.838 -1.38,-35.877 0,-68.402 -3.154,-78.258 -14.39,-93.634 -8.674,-11.828 -27.992,-21.487 -52.041,-21.487 -20.895,0 -38.045,6.111 -50.858,25.824 -3.943,6.11 -5.914,7.885 -8.477,7.885 -3.942,0 -5.913,-4.14 -5.913,-9.857 0,-5.519 1.182,-12.813 1.182,-18.53 0,-7.49 -5.125,-8.278 -13.207,-8.278 -31.54,0 -68.994,16.952 -86.143,26.217 -12.42,6.702 -13.996,12.419 -13.996,20.107 0,4.928 2.76,8.87 5.913,11.433 4.534,3.745 10.448,4.337 14.785,9.66 4.534,5.716 6.11,14.783 6.11,27.99 z"
   aria-label="Station"
   transform="matrix(1.33304,-0.02804,0.02804,1.33304,987.453,1479.029)"
   id="path15" />
    </g>
  </g>
</svg>
